<svg xmlns="http://www.w3.org/2000/svg" width="37.455" height="37" viewBox="0 0 37.455 37"><defs><style>      .cls-1 {        fill: #fff;        opacity: 0;      }    </style></defs><g id="Instagram_icon" data-name="Instagram icon" transform="translate(0)"><rect id="Rectangle_192" data-name="Rectangle 192" class="cls-1" width="37" height="37" transform="translate(0.455)"></rect><path id="Path_46" data-name="Path 46" d="M540.9,1053.914a3.705,3.705,0,0,0-2.121-2.121,6.181,6.181,0,0,0-2.076-.385c-1.179-.054-1.532-.065-4.517-.065s-3.338.012-4.517.065a6.184,6.184,0,0,0-2.076.385,3.706,3.706,0,0,0-2.122,2.121,6.193,6.193,0,0,0-.385,2.075c-.054,1.179-.065,1.533-.065,4.517s.012,3.338.065,4.517a6.192,6.192,0,0,0,.385,2.076,3.7,3.7,0,0,0,2.122,2.121,6.163,6.163,0,0,0,2.076.385c1.179.054,1.532.066,4.517.066s3.339-.012,4.517-.066a6.16,6.16,0,0,0,2.076-.385,3.7,3.7,0,0,0,2.121-2.121,6.19,6.19,0,0,0,.385-2.076c.054-1.179.065-1.532.065-4.517s-.012-3.339-.065-4.517A6.191,6.191,0,0,0,540.9,1053.914Zm-8.714,12.333a5.74,5.74,0,1,1,5.74-5.74A5.74,5.74,0,0,1,532.187,1066.247Zm5.967-10.366a1.342,1.342,0,1,1,1.341-1.341A1.341,1.341,0,0,1,538.154,1055.881Zm-2.241,4.626a3.726,3.726,0,1,1-3.726-3.726A3.726,3.726,0,0,1,535.913,1060.507Zm-3.726-18.7a18.5,18.5,0,1,0,18.5,18.5A18.5,18.5,0,0,0,532.187,1041.8Zm11.111,23.313a8.185,8.185,0,0,1-.519,2.713,5.716,5.716,0,0,1-3.269,3.27,8.215,8.215,0,0,1-2.713.52c-1.192.054-1.573.067-4.609.067s-3.416-.013-4.609-.067a8.214,8.214,0,0,1-2.713-.52,5.716,5.716,0,0,1-3.269-3.27,8.186,8.186,0,0,1-.519-2.713c-.055-1.192-.068-1.573-.068-4.609s.013-3.417.068-4.609a8.192,8.192,0,0,1,.519-2.713,5.714,5.714,0,0,1,3.269-3.269,8.2,8.2,0,0,1,2.713-.52c1.192-.054,1.573-.067,4.609-.067s3.416.013,4.609.067a8.2,8.2,0,0,1,2.713.52,5.713,5.713,0,0,1,3.269,3.269,8.191,8.191,0,0,1,.519,2.713c.055,1.193.068,1.573.068,4.609S543.352,1063.923,543.3,1065.116Z" transform="translate(-513.687 -1041.803)"></path></g></svg>